<?xml version="1.0" standalone="no"?><!DOCTYPE svg PUBLIC "-//W3C//DTD SVG 1.1//EN" "http://www.w3.org/Graphics/SVG/1.1/DTD/svg11.dtd"><svg t="1694322116259" class="icon" viewBox="0 0 1024 1024" version="1.1" xmlns="http://www.w3.org/2000/svg" p-id="1989" xmlns:xlink="http://www.w3.org/1999/xlink" width="200" height="200"><path d="M512 960a31.904 31.904 0 0 1-15.264-3.872l-384-208.064A32 32 0 0 1 96 719.936V304a32 32 0 0 1 47.232-28.128L512 475.616l368.736-199.744A31.968 31.968 0 0 1 928 304v415.936a32 32 0 0 1-16.736 28.128l-384 208.064A31.904 31.904 0 0 1 512 960zM160 700.864l352 190.72 352-190.72V357.728l-336.768 182.4a31.776 31.776 0 0 1-30.464 0L160 357.728v343.136z" fill="#8F8F8F" p-id="1990"></path><path d="M128 304L512 512l384-208L512 96z" fill="#F1F1F1" p-id="1991"></path><path d="M512 544a31.68 31.68 0 0 1-15.232-3.872l-384-208a31.936 31.936 0 0 1 0-56.256l384-208a31.968 31.968 0 0 1 30.464 0l384 208a31.936 31.936 0 0 1 0.032 56.256l-384 208A31.904 31.904 0 0 1 512 544zM195.2 304l316.8 171.616L828.8 304 512 132.384 195.2 304z" fill="#8F8F8F" p-id="1992"></path><path d="M512 960a32 32 0 0 1-32-32V512a32 32 0 0 1 64 0v416a32 32 0 0 1-32 32z" fill="#8F8F8F" p-id="1993"></path></svg>
